<svg width="200" height="200" viewBox="0 0 200 200" fill="none" xmlns="http://www.w3.org/2000/svg">
<rect width="200" height="200" fill="black"/>
<path d="M80.8867 133.478H72.168V75.6814L54.6836 82.1033V74.2283L79.5274 64.9001H80.8867V133.478ZM151.012 133.478H106.293V127.244L129.918 100.994C133.418 97.0251 135.824 93.8064 137.137 91.3376C138.48 88.8376 139.152 86.2595 139.152 83.6033C139.152 80.0408 138.074 77.1189 135.918 74.8376C133.762 72.5564 130.887 71.4158 127.293 71.4158C122.98 71.4158 119.621 72.6501 117.215 75.1189C114.84 77.5564 113.652 80.9626 113.652 85.3376H104.98C104.98 79.0564 106.996 73.9783 111.027 70.1033C115.09 66.2283 120.512 64.2908 127.293 64.2908C133.637 64.2908 138.652 65.9626 142.34 69.3064C146.027 72.6189 147.871 77.0408 147.871 82.572C147.871 89.2908 143.59 97.2908 135.027 106.572L116.746 126.4H151.012V133.478Z" fill="white"/>
</svg>
