<svg width="200" height="200" viewBox="0 0 200 200" fill="none" xmlns="http://www.w3.org/2000/svg">
<rect width="200" height="200" fill="black"/>
<path d="M112.129 63.9391V71.2985H110.535C103.785 71.4235 98.4101 73.4235 94.4101 77.2985C90.4101 81.1735 88.0976 86.6266 87.4726 93.6579C91.0664 89.5329 95.9726 87.4704 102.191 87.4704C108.129 87.4704 112.863 89.5641 116.395 93.7516C119.957 97.9391 121.738 103.345 121.738 109.97C121.738 117.002 119.816 122.627 115.973 126.845C112.16 131.064 107.035 133.174 100.598 133.174C94.0664 133.174 88.7695 130.674 84.707 125.674C80.6445 120.642 78.6133 114.174 78.6133 106.267V102.939C78.6133 90.3766 81.2851 80.7829 86.6289 74.1579C92.0039 67.5016 99.9883 64.0954 110.582 63.9391H112.129ZM100.738 94.6891C97.7695 94.6891 95.0351 95.5798 92.5351 97.361C90.0351 99.1423 88.3008 101.377 87.332 104.064V107.252C87.332 112.877 88.5976 117.408 91.1289 120.845C93.6601 124.283 96.8164 126.002 100.598 126.002C104.504 126.002 107.566 124.564 109.785 121.689C112.035 118.814 113.16 115.049 113.16 110.392C113.16 105.705 112.02 101.924 109.738 99.0485C107.488 96.1423 104.488 94.6891 100.738 94.6891Z" fill="white"/>
</svg>
