<svg width="200" height="200" viewBox="0 0 200 200" fill="none" xmlns="http://www.w3.org/2000/svg">
<rect width="200" height="200" fill="black"/>
<path d="M119.488 81.7985C119.488 85.2048 118.582 88.236 116.77 90.8923C114.988 93.5485 112.566 95.6266 109.504 97.1266C113.066 98.6579 115.879 100.892 117.941 103.83C120.035 106.767 121.082 110.095 121.082 113.814C121.082 119.72 119.082 124.424 115.082 127.924C111.113 131.424 105.879 133.174 99.3789 133.174C92.8164 133.174 87.5508 131.424 83.582 127.924C79.6445 124.392 77.6758 119.689 77.6758 113.814C77.6758 110.127 78.6758 106.799 80.6758 103.83C82.707 100.861 85.5039 98.611 89.0664 97.0798C86.0351 95.5798 83.6445 93.5016 81.8945 90.8454C80.1445 88.1891 79.2695 85.1735 79.2695 81.7985C79.2695 76.0485 81.1133 71.486 84.8008 68.111C88.4883 64.736 93.3476 63.0485 99.3789 63.0485C105.379 63.0485 110.223 64.736 113.91 68.111C117.629 71.486 119.488 76.0485 119.488 81.7985ZM112.41 113.627C112.41 109.814 111.191 106.705 108.754 104.299C106.348 101.892 103.191 100.689 99.2851 100.689C95.3789 100.689 92.2383 101.877 89.8633 104.252C87.5195 106.627 86.3476 109.752 86.3476 113.627C86.3476 117.502 87.4883 120.549 89.7695 122.767C92.082 124.986 95.2851 126.095 99.3789 126.095C103.441 126.095 106.629 124.986 108.941 122.767C111.254 120.517 112.41 117.47 112.41 113.627ZM99.3789 70.1735C95.9726 70.1735 93.207 71.236 91.082 73.361C88.9883 75.4548 87.9414 78.3141 87.9414 81.9391C87.9414 85.4079 88.9726 88.2204 91.0351 90.3766C93.1289 92.5016 95.9101 93.5641 99.3789 93.5641C102.848 93.5641 105.613 92.5016 107.676 90.3766C109.77 88.2204 110.816 85.4079 110.816 81.9391C110.816 78.4704 109.738 75.6423 107.582 73.4548C105.426 71.2673 102.691 70.1735 99.3789 70.1735Z" fill="white"/>
</svg>
