<svg width="200" height="200" viewBox="0 0 200 200" fill="none" xmlns="http://www.w3.org/2000/svg">
<rect width="200" height="200" fill="black"/>
<path d="M80.2656 133.478H71.5469V75.6814L54.0625 82.1033V74.2283L78.9062 64.9001H80.2656V133.478ZM109.656 99.2595L113.125 65.2283H148.094V73.2439H120.484L118.422 91.8533C121.766 89.8845 125.562 88.9001 129.812 88.9001C136.031 88.9001 140.969 90.9626 144.625 95.0876C148.281 99.1814 150.109 104.728 150.109 111.728C150.109 118.76 148.203 124.306 144.391 128.369C140.609 132.4 135.312 134.416 128.5 134.416C122.469 134.416 117.547 132.744 113.734 129.4C109.922 126.056 107.75 121.431 107.219 115.525H115.422C115.953 119.431 117.344 122.385 119.594 124.385C121.844 126.353 124.812 127.338 128.5 127.338C132.531 127.338 135.688 125.963 137.969 123.213C140.281 120.463 141.438 116.666 141.438 111.822C141.438 107.26 140.188 103.603 137.688 100.853C135.219 98.072 131.922 96.6814 127.797 96.6814C124.016 96.6814 121.047 97.5095 118.891 99.1658L116.594 101.041L109.656 99.2595Z" fill="white"/>
</svg>
