<svg width="200" height="200" viewBox="0 0 200 200" fill="none" xmlns="http://www.w3.org/2000/svg">
<rect width="200" height="200" fill="black"/>
<path d="M80.2656 133.478H71.5469V75.6814L54.0625 82.1033V74.2283L78.9062 64.9001H80.2656V133.478ZM139.703 65.1814V72.5408H138.109C131.359 72.6658 125.984 74.6658 121.984 78.5408C117.984 82.4158 115.672 87.8689 115.047 94.9001C118.641 90.7751 123.547 88.7126 129.766 88.7126C135.703 88.7126 140.437 90.8064 143.969 94.9939C147.531 99.1814 149.312 104.588 149.312 111.213C149.312 118.244 147.391 123.869 143.547 128.088C139.734 132.306 134.609 134.416 128.172 134.416C121.641 134.416 116.344 131.916 112.281 126.916C108.219 121.885 106.187 115.416 106.187 107.51V104.181C106.187 91.6189 108.859 82.0251 114.203 75.4001C119.578 68.7439 127.562 65.3376 138.156 65.1814H139.703ZM128.312 95.9314C125.344 95.9314 122.609 96.822 120.109 98.6033C117.609 100.385 115.875 102.619 114.906 105.306V108.494C114.906 114.119 116.172 118.65 118.703 122.088C121.234 125.525 124.391 127.244 128.172 127.244C132.078 127.244 135.141 125.806 137.359 122.931C139.609 120.056 140.734 116.291 140.734 111.635C140.734 106.947 139.594 103.166 137.312 100.291C135.062 97.3845 132.062 95.9314 128.312 95.9314Z" fill="white"/>
</svg>
