<svg width="200" height="200" viewBox="0 0 200 200" fill="none" xmlns="http://www.w3.org/2000/svg">
<rect width="200" height="200" fill="black"/>
<path d="M111.332 102.236C109.52 104.392 107.348 106.127 104.816 107.439C102.316 108.752 99.5664 109.408 96.5664 109.408C92.6289 109.408 89.1914 108.439 86.2539 106.502C83.3476 104.564 81.0976 101.845 79.5039 98.3454C77.9101 94.8141 77.1133 90.9235 77.1133 86.6735C77.1133 82.111 77.9726 78.0016 79.6914 74.3454C81.4414 70.6891 83.9101 67.8923 87.0976 65.9548C90.2851 64.0173 94.0039 63.0485 98.2539 63.0485C105.004 63.0485 110.316 65.5798 114.191 70.6423C118.098 75.6735 120.051 82.5485 120.051 91.2673V93.7985C120.051 107.08 117.426 116.783 112.176 122.908C106.926 129.002 99.0039 132.127 88.4101 132.283H86.7226V124.97H88.5508C95.707 124.845 101.207 122.986 105.051 119.392C108.895 115.767 110.988 110.049 111.332 102.236ZM97.9726 102.236C100.879 102.236 103.551 101.345 105.988 99.5641C108.457 97.7829 110.254 95.5798 111.379 92.9548V89.486C111.379 83.7985 110.145 79.1735 107.676 75.611C105.207 72.0485 102.082 70.2673 98.3008 70.2673C94.4883 70.2673 91.4258 71.736 89.1133 74.6735C86.8008 77.5798 85.6445 81.4235 85.6445 86.2048C85.6445 90.861 86.7539 94.7048 88.9726 97.736C91.2226 100.736 94.2226 102.236 97.9726 102.236Z" fill="white"/>
</svg>
