<svg width="200" height="200" viewBox="0 0 200 200" fill="none" xmlns="http://www.w3.org/2000/svg">
<rect width="200" height="200" fill="black"/>
<path d="M80.2656 133.478H71.5469V75.6814L54.0625 82.1033V74.2283L78.9062 64.9001H80.2656V133.478ZM148.469 104.369C148.469 114.525 146.734 122.072 143.266 127.01C139.797 131.947 134.375 134.416 127 134.416C119.719 134.416 114.328 132.01 110.828 127.197C107.328 122.353 105.516 115.135 105.391 105.541V93.9626C105.391 83.9314 107.125 76.4783 110.594 71.6033C114.062 66.7283 119.5 64.2908 126.906 64.2908C134.25 64.2908 139.656 66.6501 143.125 71.3689C146.594 76.0564 148.375 83.3064 148.469 93.1189V104.369ZM139.797 92.5095C139.797 85.1658 138.766 79.822 136.703 76.4783C134.641 73.1033 131.375 71.4158 126.906 71.4158C122.469 71.4158 119.234 73.0876 117.203 76.4314C115.172 79.7751 114.125 84.9158 114.062 91.8533V105.728C114.062 113.103 115.125 118.556 117.25 122.088C119.406 125.588 122.656 127.338 127 127.338C131.281 127.338 134.453 125.681 136.516 122.369C138.609 119.056 139.703 113.838 139.797 106.713V92.5095Z" fill="white"/>
</svg>
