<svg width="200" height="200" viewBox="0 0 200 200" fill="none" xmlns="http://www.w3.org/2000/svg">
<rect width="200" height="200" fill="black"/>
<path d="M80.8867 133.478H72.168V75.6814L54.6836 82.1033V74.2283L79.5274 64.9001H80.8867V133.478ZM118.902 95.1345H125.418C129.512 95.072 132.73 93.9939 135.074 91.9001C137.418 89.8064 138.59 86.9783 138.59 83.4158C138.59 75.4158 134.605 71.4158 126.637 71.4158C122.887 71.4158 119.887 72.4939 117.637 74.6501C115.418 76.7751 114.309 79.6033 114.309 83.1345H105.637C105.637 77.7283 107.605 73.2439 111.543 69.6814C115.512 66.0876 120.543 64.2908 126.637 64.2908C133.074 64.2908 138.121 65.9939 141.777 69.4001C145.434 72.8064 147.262 77.5408 147.262 83.6033C147.262 86.572 146.293 89.447 144.355 92.2283C142.449 95.0095 139.84 97.0876 136.527 98.4626C140.277 99.6501 143.168 101.619 145.199 104.369C147.262 107.119 148.293 110.478 148.293 114.447C148.293 120.572 146.293 125.431 142.293 129.025C138.293 132.619 133.09 134.416 126.684 134.416C120.277 134.416 115.059 132.681 111.027 129.213C107.027 125.744 105.027 121.166 105.027 115.478H113.746C113.746 119.072 114.918 121.947 117.262 124.103C119.605 126.26 122.746 127.338 126.684 127.338C130.871 127.338 134.074 126.244 136.293 124.056C138.512 121.869 139.621 118.728 139.621 114.635C139.621 110.666 138.402 107.619 135.965 105.494C133.527 103.369 130.012 102.275 125.418 102.213H118.902V95.1345Z" fill="white"/>
</svg>
