<svg width="200" height="200" viewBox="0 0 200 200" fill="none" xmlns="http://www.w3.org/2000/svg">
<rect width="200" height="200" fill="black"/>
<path d="M122.816 132.236H78.0976V126.002L101.723 99.7516C105.223 95.7829 107.629 92.5641 108.941 90.0954C110.285 87.5954 110.957 85.0173 110.957 82.361C110.957 78.7985 109.879 75.8766 107.723 73.5954C105.566 71.3141 102.691 70.1735 99.0976 70.1735C94.7851 70.1735 91.4258 71.4079 89.0195 73.8766C86.6445 76.3141 85.457 79.7204 85.457 84.0954H76.7851C76.7851 77.8141 78.8008 72.736 82.832 68.861C86.8945 64.986 92.3164 63.0485 99.0976 63.0485C105.441 63.0485 110.457 64.7204 114.145 68.0641C117.832 71.3766 119.676 75.7985 119.676 81.3298C119.676 88.0485 115.395 96.0485 106.832 105.33L88.5508 125.158H122.816V132.236Z" fill="white"/>
</svg>
