<svg width="200" height="200" viewBox="0 0 200 200" fill="none" xmlns="http://www.w3.org/2000/svg">
<rect width="200" height="200" fill="black"/>
<path d="M90.707 93.8923H97.2226C101.316 93.8298 104.535 92.7516 106.879 90.6579C109.223 88.5641 110.395 85.736 110.395 82.1735C110.395 74.1735 106.41 70.1735 98.4414 70.1735C94.6914 70.1735 91.6914 71.2516 89.4414 73.4079C87.2226 75.5329 86.1133 78.361 86.1133 81.8923H77.4414C77.4414 76.486 79.4101 72.0016 83.3476 68.4391C87.3164 64.8454 92.3476 63.0485 98.4414 63.0485C104.879 63.0485 109.926 64.7516 113.582 68.1579C117.238 71.5641 119.066 76.2985 119.066 82.361C119.066 85.3298 118.098 88.2048 116.16 90.986C114.254 93.7673 111.645 95.8454 108.332 97.2204C112.082 98.4079 114.973 100.377 117.004 103.127C119.066 105.877 120.098 109.236 120.098 113.205C120.098 119.33 118.098 124.189 114.098 127.783C110.098 131.377 104.895 133.174 98.4883 133.174C92.082 133.174 86.8633 131.439 82.832 127.97C78.832 124.502 76.832 119.924 76.832 114.236H85.5508C85.5508 117.83 86.7226 120.705 89.0664 122.861C91.4101 125.017 94.5508 126.095 98.4883 126.095C102.676 126.095 105.879 125.002 108.098 122.814C110.316 120.627 111.426 117.486 111.426 113.392C111.426 109.424 110.207 106.377 107.77 104.252C105.332 102.127 101.816 101.033 97.2226 100.97H90.707V93.8923Z" fill="white"/>
</svg>
