<svg width="200" height="200" viewBox="0 0 200 200" fill="none" xmlns="http://www.w3.org/2000/svg">
<rect width="200" height="200" fill="black"/>
<path d="M82.082 98.0173L85.5508 63.986H120.52V72.0016H92.9101L90.8476 90.611C94.1914 88.6423 97.9883 87.6579 102.238 87.6579C108.457 87.6579 113.395 89.7204 117.051 93.8454C120.707 97.9391 122.535 103.486 122.535 110.486C122.535 117.517 120.629 123.064 116.816 127.127C113.035 131.158 107.738 133.174 100.926 133.174C94.8945 133.174 89.9726 131.502 86.1601 128.158C82.3476 124.814 80.1758 120.189 79.6445 114.283H87.8476C88.3789 118.189 89.7695 121.142 92.0195 123.142C94.2695 125.111 97.2383 126.095 100.926 126.095C104.957 126.095 108.113 124.72 110.395 121.97C112.707 119.22 113.863 115.424 113.863 110.58C113.863 106.017 112.613 102.361 110.113 99.611C107.645 96.8298 104.348 95.4391 100.223 95.4391C96.4414 95.4391 93.4726 96.2673 91.3164 97.9235L89.0195 99.7985L82.082 98.0173Z" fill="white"/>
</svg>
